<?xml version="1.0" encoding="iso-8859-1"?>
<!-- Generator: Adobe Illustrator 16.0.0, SVG Export Plug-In . SVG Version: 6.00 Build 0)  -->
<!DOCTYPE svg PUBLIC "-//W3C//DTD SVG 1.1//EN" "http://www.w3.org/Graphics/SVG/1.1/DTD/svg11.dtd">
<svg version="1.1" id="Capa_1" xmlns="http://www.w3.org/2000/svg" xmlns:xlink="http://www.w3.org/1999/xlink" x="0px"
     y="0px"
     width="20px" height="20px" viewBox="0 0 477.909 477.909"
     style="enable-background:new 0 0 477.909 477.909;"
     xml:space="preserve">
<g>
	<g>
		<path  d="M313.823,120.194c0,0,1.391-5.943,12.48-12.487c0,0-11.691-1.783-17.638,7.927
			C312.634,118.808,313.823,120.194,313.823,120.194z"/>
        <path fill="#ff7b00" d="M238.954,0C106.985,0,0,106.984,0,238.955c0,131.971,106.985,238.954,238.954,238.954
			c131.967,0,238.955-106.983,238.955-238.954C477.909,106.984,370.921,0,238.954,0z M334.755,106.35
			c7.701,6.202,7.426,19.317-0.611,29.295l-95.71,104.137c-8.039,9.969-6.179,9.525-13.88,3.323
			c-7.698-6.201-7.74-4.299,0.301-14.268l81.413-115.662C314.3,103.204,327.06,100.146,334.755,106.35z M220.937,269.748
			c-26.624,11.024-64.76,2.413-48.89,2.292c15.871-0.117,17.845-3.943,23.016-19.877
			C204.602,227.021,247.561,258.743,220.937,269.748z M280.977,374.534c-3.775,0.504-39.39,0.046-42.022,0
			c-2.627,0.046-38.247,0.504-42.022,0c-3.918-0.527,0-3.669,4.966-7.318c4.971-3.659,5.486-10.184,5.486-10.184l1.869-12.938
			h59.398l1.861,12.942c0,0,0.527,6.006,5.498,9.665C280.972,370.361,284.888,374.007,280.977,374.534z M382.327,323.219
			c0,6.334-5.134,11.318-11.472,11.318H107.051c-6.331,0-11.469-4.984-11.469-11.318V156.908c0-6.338,5.138-13.535,11.469-13.535
			h164.647l-12.115,19.117H114.698v138.593h248.513V162.49h-43.964l15.812-19.117h35.797c6.338,0,11.472,7.197,11.472,13.535
			V323.219z"/>
	</g>
</g>
    <g>
</g>
    <g>
</g>
    <g>
</g>
    <g>
</g>
    <g>
</g>
    <g>
</g>
    <g>
</g>
    <g>
</g>
    <g>
</g>
    <g>
</g>
    <g>
</g>
    <g>
</g>
    <g>
</g>
    <g>
</g>
    <g>
</g>
</svg>
