<?xml version="1.0" ?><!DOCTYPE svg  PUBLIC '-//W3C//DTD SVG 1.1//EN'  'http://www.w3.org/Graphics/SVG/1.1/DTD/svg11.dtd'><svg height="0.990276in" style="shape-rendering:geometricPrecision; text-rendering:geometricPrecision; image-rendering:optimizeQuality; fill-rule:evenodd; clip-rule:evenodd" version="1.1" viewBox="0 0 206 206" width="0.991323in" xml:space="preserve" xmlns="http://www.w3.org/2000/svg" xmlns:xlink="http://www.w3.org/1999/xlink"><defs><style type="text/css">
   <![CDATA[
    .fil0 {fill:ff7b00}
   ]]>
  </style></defs><g id="Layer_x0020_1"><g id="_520625760"><g><path fill="#ff7b00" class="fil0" d="M104 153c-10,0 -20,-3 -28,-9l-20 7 6 -19c-6,-9 -10,-19 -10,-31 0,-1 1,-3 1,-5 2,-26 24,-46 51,-46 28,0 50,21 52,47 0,2 0,3 0,4 0,29 -23,52 -52,52zm62 -53c-1,-33 -28,-60 -62,-60 -33,0 -60,26 -61,59 0,1 0,2 0,2 0,12 3,23 8,32l-11 33 34 -11c9,5 19,8 30,8 34,0 62,-28 62,-62 0,0 0,-1 0,-1z"/><path fill="#ff7b00" class="fil0" d="M133 114c-2,-1 -9,-5 -11,-5 -1,-1 -2,-1 -3,1 -1,1 -4,5 -5,6 -1,1 -2,1 -3,0 -2,-1 -7,-2 -12,-8 -5,-4 -8,-8 -9,-10 -1,-1 0,-2 1,-3 1,-1 1,-2 2,-3 0,0 0,0 1,0 0,-1 0,-1 1,-2 0,-1 0,-2 -1,-3 0,-1 -3,-8 -4,-11 -1,-3 -3,-2 -4,-2 0,0 -1,-1 -2,-1 -1,0 -3,1 -5,2 -1,2 -5,5 -5,13 0,2 0,3 1,5 1,5 5,10 5,10 1,1 11,17 26,23 16,6 16,4 18,4 3,0 9,-4 11,-7 1,-4 1,-7 0,-7 0,-1 -1,-1 -2,-2z"/></g><path fill="#ff7b00" class="fil0 str0" d="M205 103c0,57 -46,102 -102,102 -56,0 -102,-45 -102,-102 0,-56 46,-102 102,-102l103 0 0 102 -1 0zm-102 -91c51,0 92,41 92,91l0 0c-1,51 -42,92 -92,92 -50,0 -91,-41 -91,-92 0,-50 41,-91 91,-91z"/></g></g></svg>